<svg width="24" height="24" viewBox="0 0 24 24" fill="currentColor" xmlns="http://www.w3.org/2000/svg">
<path d="M9.00002 16.5L9.00002 7.50002C9.00002 7.3011 9.07904 7.11034 9.21969 6.96969C9.36034 6.82903 9.55111 6.75002 9.75002 6.75002L12 6.75002L12 3.00002C11.9999 2.85159 12.0438 2.70647 12.1262 2.58303C12.2086 2.45958 12.3258 2.36336 12.4629 2.30655C12.6 2.24974 12.7509 2.23488 12.8965 2.26387C13.0421 2.29286 13.1758 2.36438 13.2806 2.46939L22.2806 11.4694C22.3504 11.539 22.4057 11.6218 22.4434 11.7128C22.4812 11.8039 22.5006 11.9015 22.5006 12C22.5006 12.0986 22.4812 12.1962 22.4434 12.2872C22.4057 12.3783 22.3504 12.461 22.2806 12.5306L13.2806 21.5306C13.1758 21.6357 13.0421 21.7072 12.8965 21.7362C12.7509 21.7652 12.6 21.7503 12.4629 21.6935C12.3258 21.6367 12.2086 21.5405 12.1262 21.417C12.0438 21.2936 11.9999 21.1484 12 21L12 17.25L9.75002 17.25C9.55111 17.25 9.36034 17.171 9.21969 17.0303C9.07904 16.8897 9.00002 16.6989 9.00002 16.5ZM6.75002 17.25C6.94893 17.25 7.1397 17.171 7.28035 17.0303C7.421 16.8897 7.50002 16.6989 7.50002 16.5L7.50002 7.50002C7.50002 7.3011 7.42101 7.11034 7.28035 6.96969C7.1397 6.82903 6.94893 6.75002 6.75002 6.75002C6.55111 6.75002 6.36034 6.82903 6.21969 6.96969C6.07904 7.11034 6.00002 7.3011 6.00002 7.50002L6.00002 16.5C6.00002 16.6989 6.07904 16.8897 6.21969 17.0303C6.36034 17.171 6.55111 17.25 6.75002 17.25ZM3.75002 17.25C3.94893 17.25 4.1397 17.171 4.28035 17.0303C4.421 16.8897 4.50002 16.6989 4.50002 16.5L4.50002 7.50002C4.50002 7.3011 4.421 7.11034 4.28035 6.96968C4.1397 6.82903 3.94893 6.75002 3.75002 6.75002C3.55111 6.75002 3.36034 6.82903 3.21969 6.96968C3.07904 7.11034 3.00002 7.3011 3.00002 7.50002L3.00002 16.5C3.00002 16.6989 3.07904 16.8897 3.21969 17.0303C3.36034 17.171 3.55111 17.25 3.75002 17.25Z" fill="currentColor"/>
</svg>
